HIERARCHY
ROOT Reference
{
  OFFSET 0 0 0
  CHANNELS 6 Xposition Yposition Zposition Zrotation Xrotation Yrotation
  JOINT Hips
  {
    OFFSET 251.394 724.17 483.536
    CHANNELS 3 Zrotation Xrotation Yrotation
    JOINT RightUpLeg
    {
      OFFSET -0.450515 -23.4426 -1.37224
      CHANNELS 3 Zrotation Xrotation Yrotation
      JOINT RightLeg
      {
        OFFSET 112.821 0.0872427 -0.321027
        CHANNELS 3 Zrotation Xrotation Yrotation
        JOINT RightFoot
        {
          OFFSET 105.718 0.000193788 0.0213165
          CHANNELS 3 Zrotation Xrotation Yrotation
          JOINT RightToeBase
          {
            OFFSET 37.638 -0.000116272 0.00224792
            CHANNELS 3 Zrotation Xrotation Yrotation
            JOINT RightToeEnd
            {
              OFFSET 21.2112 0.114605 -0.000138184
              CHANNELS 3 Zrotation Xrotation Yrotation
              End Site
              {
                OFFSET 0 0 0
              }
            }
          }
        }
      }
    }
    JOINT LeftUpLeg
    {
      OFFSET -0.449508 23.4315 -1.37054
      CHANNELS 3 Zrotation Xrotation Yrotation
      JOINT LeftLeg
      {
        OFFSET 112.821 -0.0485242 -0.372458
        CHANNELS 3 Zrotation Xrotation Yrotation
        JOINT LeftFoot
        {
          OFFSET 105.716 0.00496094 -0.0229443
          CHANNELS 3 Zrotation Xrotation Yrotation
          JOINT LeftToeBase
          {
            OFFSET 37.639 0 0.00158905
            CHANNELS 3 Zrotation Xrotation Yrotation
            JOINT LeftToeEnd
            {
              OFFSET 21.2113 -0.125031 -0.00017438
              CHANNELS 3 Zrotation Xrotation Yrotation
              End Site
              {
                OFFSET 0 0 0
              }
            }
          }
        }
      }
    }
    JOINT Spine
    {
      OFFSET -5.01225 0.000463591 -9.60395
      CHANNELS 3 Zrotation Xrotation Yrotation
      JOINT Spine1
      {
        OFFSET 26.0222 -0.000271301 -0.000155029
        CHANNELS 3 Zrotation Xrotation Yrotation
        JOINT Spine2
        {
          OFFSET 27.173 -0.000155029 -0.000310058
          CHANNELS 3 Zrotation Xrotation Yrotation
          JOINT Spine3
          {
            OFFSET 36.3953 -0.000232544 7.75146e-005
            CHANNELS 3 Zrotation Xrotation Yrotation
            JOINT Neck
            {
              OFFSET 36.4331 0 -3.00261
              CHANNELS 3 Zrotation Xrotation Yrotation
              JOINT Head
              {
                OFFSET 23.0407 -0.000232544 -0.000310058
                CHANNELS 3 Zrotation Xrotation Yrotation
                End Site
                {
                  OFFSET 0 0 0
                }
              }
            }
            JOINT LeftShoulder
            {
              OFFSET 20.1317 6.74168 -12.6061
              CHANNELS 3 Zrotation Xrotation Yrotation
              JOINT LeftArm
              {
                OFFSET 34.2172 -5.81359e-005 7.75146e-005
                CHANNELS 3 Zrotation Xrotation Yrotation
                JOINT LeftForeArm
                {
                  OFFSET 65.4129 -0.0821605 0.0585235
                  CHANNELS 3 Zrotation Xrotation Yrotation
                  JOINT LeftHand
                  {
                    OFFSET 67.3883 0.0359667 0.0112396
                    CHANNELS 3 Zrotation Xrotation Yrotation
                    JOINT LeftHandThumb1
                    {
                      OFFSET 8.78386 2.85353 -6.05362
                      CHANNELS 3 Zrotation Xrotation Yrotation
                      JOINT LeftHandThumb2
                      {
                        OFFSET 8.25498 -0.000116272 -0.000174407
                        CHANNELS 3 Zrotation Xrotation Yrotation
                        JOINT LeftHandThumb3
                        {
                          OFFSET 7.24822 0.000310058 5.81358e-005
                          CHANNELS 3 Zrotation Xrotation Yrotation
                          JOINT LeftHandThumb4
                          {
                            OFFSET 7.0004 -3.87568e-005 -0.000310057
                            CHANNELS 3 Zrotation Xrotation Yrotation
                            End Site
                            {
                              OFFSET 0 0 0
                            }
                          }
                        }
                      }
                    }
                    JOINT LeftHandIndex1
                    {
                      OFFSET 24.0991 -1.01537 -5.40558
                      CHANNELS 3 Zrotation Xrotation Yrotation
                      JOINT LeftHandIndex2
                      {
                        OFFSET 7.26759 -0.000290679 -0.000465086
                        CHANNELS 3 Zrotation Xrotation Yrotation
                        JOINT LeftHandIndex3
                        {
                          OFFSET 7.13628 -1.93787e-005 0.000232543
                          CHANNELS 3 Zrotation Xrotation Yrotation
                          JOINT LeftHandIndex4
                          {
                            OFFSET 5.46699 9.68932e-005 -0.000387571
                            CHANNELS 3 Zrotation Xrotation Yrotation
                            End Site
                            {
                              OFFSET 0 0 0
                            }
                          }
                        }
                      }
                    }
                    JOINT LeftHandMiddle1
                    {
                      OFFSET 24.4604 -2.52837 0.918567
                      CHANNELS 3 Zrotation Xrotation Yrotation
                      JOINT LeftHandMiddle2
                      {
                        OFFSET 7.41627 -5.81359e-005 0.000116271
                        CHANNELS 3 Zrotation Xrotation Yrotation
                        JOINT LeftHandMiddle3
                        {
                          OFFSET 8.76829 3.87573e-005 -7.75142e-005
                          CHANNELS 3 Zrotation Xrotation Yrotation
                          JOINT LeftHandMiddle4
                          {
                            OFFSET 6.07588 -0.00013565 -5.81356e-005
                            CHANNELS 3 Zrotation Xrotation Yrotation
                            End Site
                            {
                              OFFSET 0 0 0
                            }
                          }
                        }
                      }
                    }
                    JOINT LeftHandRing1
                    {
                      OFFSET 22.465 -1.97467 6.3466
                      CHANNELS 3 Zrotation Xrotation Yrotation
                      JOINT LeftHandRing2
                      {
                        OFFSET 7.36666 -0.000232544 0.000387571
                        CHANNELS 3 Zrotation Xrotation Yrotation
                        JOINT LeftHandRing3
                        {
                          OFFSET 8.07624 -0.000465087 -0.000203475
                          CHANNELS 3 Zrotation Xrotation Yrotation
                          JOINT LeftHandRing4
                          {
                            OFFSET 6.04433 0.00013565 3.87571e-005
                            CHANNELS 3 Zrotation Xrotation Yrotation
                            End Site
                            {
                              OFFSET 0 0 0
                            }
                          }
                        }
                      }
                    }
                    JOINT LeftHandPinky1
                    {
                      OFFSET 19.5278 0.352933 10.4295
                      CHANNELS 3 Zrotation Xrotation Yrotation
                      JOINT LeftHandPinky2
                      {
                        OFFSET 6.16525 5.8136e-005 -0.000251921
                        CHANNELS 3 Zrotation Xrotation Yrotation
                        JOINT LeftHandPinky3
                        {
                          OFFSET 6.14448 -0.000329434 -0.00510625
                          CHANNELS 3 Zrotation Xrotation Yrotation
                          JOINT LeftHandPinky4
                          {
                            OFFSET 4.98555 0.000116272 0.000116271
                            CHANNELS 3 Zrotation Xrotation Yrotation
                            End Site
                            {
                              OFFSET 0 0 0
                            }
                          }
                        }
                      }
                    }
                  }
                }
              }
            }
            JOINT RightShoulder
            {
              OFFSET 20.1309 -6.74152 -12.6063
              CHANNELS 3 Zrotation Xrotation Yrotation
              JOINT RightArm
              {
                OFFSET 34.2171 7.75146e-005 7.75146e-005
                CHANNELS 3 Zrotation Xrotation Yrotation
                JOINT RightForeArm
                {
                  OFFSET 65.4492 0.242543 -0.176501
                  CHANNELS 3 Zrotation Xrotation Yrotation
                  JOINT RightHand
                  {
                    OFFSET 67.3888 -0.0867388 0.0597442
                    CHANNELS 3 Zrotation Xrotation Yrotation
                    JOINT RightHandThumb1
                    {
                      OFFSET 8.78307 -2.85357 -6.05302
                      CHANNELS 3 Zrotation Xrotation Yrotation
                      JOINT RightHandThumb2
                      {
                        OFFSET 8.25493 -7.75145e-005 0
                        CHANNELS 3 Zrotation Xrotation Yrotation
                        JOINT RightHandThumb3
                        {
                          OFFSET 7.24797 -0.000174408 0.000155029
                          CHANNELS 3 Zrotation Xrotation Yrotation
                          JOINT RightHandThumb4
                          {
                            OFFSET 7.00062 0 0
                            CHANNELS 3 Zrotation Xrotation Yrotation
                            End Site
                            {
                              OFFSET 0 0 0
                            }
                          }
                        }
                      }
                    }
                    JOINT RightHandIndex1
                    {
                      OFFSET 24.0991 1.01525 -5.40578
                      CHANNELS 3 Zrotation Xrotation Yrotation
                      JOINT RightHandIndex2
                      {
                        OFFSET 7.26773 7.75144e-005 0.000232543
                        CHANNELS 3 Zrotation Xrotation Yrotation
                        JOINT RightHandIndex3
                        {
                          OFFSET 7.13572 -0.000310058 3.87571e-005
                          CHANNELS 3 Zrotation Xrotation Yrotation
                          JOINT RightHandIndex4
                          {
                            OFFSET 5.46717 0 3.87572e-005
                            CHANNELS 3 Zrotation Xrotation Yrotation
                            End Site
                            {
                              OFFSET 0 0 0
                            }
                          }
                        }
                      }
                    }
                    JOINT RightHandMiddle1
                    {
                      OFFSET 24.4603 2.52899 0.918547
                      CHANNELS 3 Zrotation Xrotation Yrotation
                      JOINT RightHandMiddle2
                      {
                        OFFSET 7.41641 -0.000116272 -0.000116272
                        CHANNELS 3 Zrotation Xrotation Yrotation
                        JOINT RightHandMiddle3
                        {
                          OFFSET 8.76765 -3.87577e-005 0.000232543
                          CHANNELS 3 Zrotation Xrotation Yrotation
                          JOINT RightHandMiddle4
                          {
                            OFFSET 6.07609 -0.000193787 -0.000116271
                            CHANNELS 3 Zrotation Xrotation Yrotation
                            End Site
                            {
                              OFFSET 0 0 0
                            }
                          }
                        }
                      }
                    }
                    JOINT RightHandRing1
                    {
                      OFFSET 22.465 1.97571 6.34696
                      CHANNELS 3 Zrotation Xrotation Yrotation
                      JOINT RightHandRing2
                      {
                        OFFSET 7.36684 0.000193786 0.000155029
                        CHANNELS 3 Zrotation Xrotation Yrotation
                        JOINT RightHandRing3
                        {
                          OFFSET 8.07614 -0.000271301 0
                          CHANNELS 3 Zrotation Xrotation Yrotation
                          JOINT RightHandRing4
                          {
                            OFFSET 6.04468 0.000232543 0
                            CHANNELS 3 Zrotation Xrotation Yrotation
                            End Site
                            {
                              OFFSET 0 0 0
                            }
                          }
                        }
                      }
                    }
                    JOINT RightHandPinky1
                    {
                      OFFSET 19.5277 -0.352346 10.4296
                      CHANNELS 3 Zrotation Xrotation Yrotation
                      JOINT RightHandPinky2
                      {
                        OFFSET 6.16508 0 0.000232543
                        CHANNELS 3 Zrotation Xrotation Yrotation
                        JOINT RightHandPinky3
                        {
                          OFFSET 6.14396 -0.000155048 -0.0048834
                          CHANNELS 3 Zrotation Xrotation Yrotation
                          JOINT RightHandPinky4
                          {
                            OFFSET 4.98577 -7.75146e-005 -7.75143e-005
                            CHANNELS 3 Zrotation Xrotation Yrotation
                            End Site
                            {
                              OFFSET 0 0 0
                            }
                          }
                        }
                      }
                    }
                  }
                }
              }
            }
          }
        }
      }
    }
  }
}
MOTION
Frames:	5
Frame Time:	0.0333333
0 0 0 -90 -7.01671e-015 -180 -176.323 -15.9689 141.633 -145.462 -26.86 -15.3191 0.0791799 -0.0451032 -117.247 -4.0135 -24.8506 22.733 -0.577276 0.0677139 61.4464 5.17266e-005 -0.000213594 -86.4976 142.83 11.0908 -51.1842 -0.038951 0.00464399 -94.1075 6.94302 16.5924 24.6553 0.593741 -0.0274827 66.0355 2.63985e-005 1.00877e-005 -86.4976 2.09595e-005 2.21816e-005 136.623 15.8913 -4.60411 -14.9184 4.32448 -1.7165 -10.7101 -0.232948 -7.11677 -17.1679 3.37083 2.54367 22.0092 -1.49545 8.77016 7.93337 107.626 21.4579 -18.2414 24.9175 -31.1459 76.8943 -8.46496 8.84503 33.0439 -22.9733 4.27649 3.2592 175.592 -13.2585 146.93 0.000374637 4.25676e-005 10.4461 0.000266765 2.26779e-005 11.9457 0.000171175 -0.00134821 -0.000149808 122.794 85.1966 -121.721 -0.000450621 -0.000329286 1.22489 0.000841946 -0.000821885 -3.3402 -0.000555218 -0.000629709 -0.13928 30.509 89.9998 -29.3824 -1.11645e-005 -0.000496558 8.53765e-006 0.00059897 -0.000817237 -7.77537 -0.000513289 -0.000240183 -0.128847 79.0619 87.296 -82.7243 -0.000130019 -0.000886293 1.39108 0.000924884 -0.000834484 -7.0103 -0.000627524 -0.000640171 -0.000475126 64.1653 83.4702 -73.9685 0.000778235 -0.00145185 1.15513 -0.000278352 -0.000318731 2.38022 -2.76445e-005 -6.78373e-005 -0.00439608 -63.2269 -21.0905 -18.5636 -37.3148 -6.18 105.254 4.98748 4.96729 23.636 46.2055 9.99166 -19.7624 160.663 -1.10976 148.92 -0.000108889 8.14447e-005 17.6862 0.000126634 0.000113206 11.7363 -0.000701904 -0.000442504 -180 -41.4687 -86.4072 -30.5959 -0.000201564 -0.00028953 6.98214 0.00660542 0.000547736 3.56468 -9.5487e-005 -0.000106739 177.889 1.16208 -87.021 13.264 -4.73174e-006 7.89345e-005 0.631432 4.63011e-005 0.000206481 -0.173462 -0.000217158 0.000731923 177.889 -35.3586 -86.4871 -31.0134 -1.46157e-005 -0.000259895 1.9776 8.63223e-005 0.000617529 3.76085 -0.000121504 1.52483e-005 177.875 -49.6304 -81.1903 -56.7569 9.01989e-005 0.000404614 5.21179 4.72667e-005 0.000210433 3.52895 -0.00194804 0.0021194 177.801 
0 0 0 -90 -7.01671e-015 -180 -177.74 -18.7915 145.981 -144.375 -21.2631 -13.6847 0.0766439 -0.0422313 -116.651 -4.34347 -23.5219 22.6792 -0.57535 0.0823877 59.9867 4.41874e-005 -2.81424e-006 -86.4976 142.198 10.5819 -44.8978 -0.0235754 0.00456547 -94.8182 6.70326 16.813 24.6894 0.593022 -0.0393639 64.889 2.64906e-005 2.39517e-006 -86.4976 3.26715e-005 3.20632e-005 134.462 13.4431 -4.16497 -18.0929 2.80904 -1.43899 -10.8849 -0.37812 -6.71141 -18.5192 3.44639 3.08491 22.8363 -1.65744 8.88599 8.65729 106.632 20.8543 -20.7329 26.3168 -27.0152 77.8743 -8.44692 9.04485 33.0158 -23.9102 3.94595 2.91435 175.592 -13.2585 146.93 0.000374392 4.15996e-005 10.4461 0.000266625 4.53257e-006 11.9457 0.000171178 -0.00135062 -0.000149808 122.796 85.1965 -121.724 -0.000450622 -0.000379206 1.22489 0.00084194 -0.000825406 -3.3402 -0.000553992 -0.00062992 -0.139754 26.1113 89.9998 -24.9847 -1.0526e-005 -0.000300112 7.68397e-006 0.000598945 -0.000836242 -7.77537 -0.000512221 -0.000240612 -0.129359 79.0616 87.296 -82.7239 -0.000130017 -0.000893074 1.39108 0.000924819 -0.000838143 -7.0103 -0.000627525 -0.00065466 -0.000475125 64.1651 83.4702 -73.9683 0.000778233 -0.00148119 1.15513 -0.000278336 -0.00032801 2.38022 -2.7636e-005 -0.000128256 -0.00439607 -64.113 -21.2203 -18.5975 -37.6173 -7.12902 105.38 4.49863 5.20728 23.0203 44.9838 8.26457 -17.3865 160.685 -1.10191 148.926 -0.000109714 9.01061e-005 17.6553 0.000123661 9.17506e-005 11.7234 -0.000701904 -0.000442504 -180 -41.7334 -86.4026 -30.8529 -0.000199801 -0.000287511 7.00131 0.00681954 0.00056635 3.60363 -9.54749e-005 -0.000106739 177.896 1.18581 -87.0294 13.3027 -6.37108e-006 8.2304e-005 0.671796 4.5417e-005 0.000205671 -0.132671 -0.000217241 0.000731926 177.895 -35.1935 -86.4961 -30.8287 -2.11349e-005 -0.000259457 2.00436 8.64738e-005 0.000618835 3.79518 -0.000136765 1.52483e-005 177.881 -49.5832 -81.2058 -56.6395 8.17712e-005 0.00039413 5.28293 4.2245e-005 0.0002196 3.60662 -0.00193362 0.00210417 177.808 
0 0 0 -90 -7.01671e-015 -180 -178.343 -20.9496 148.945 -143.197 -18.163 -12.7503 0.0745996 -0.0393812 -115.725 -6.03386 -23.9604 21.509 -0.575537 0.0811843 60.1067 4.65399e-005 -2.16466e-006 -86.4976 142.245 10.1578 -40.885 -0.0406242 0.00492338 -95.4285 6.09432 17.2137 25.5231 0.593509 -0.031922 65.6101 2.62067e-005 -1.5533e-005 -86.4976 -8.24162e-006 2.08591e-005 133.119 11.3031 -3.68664 -20.301 1.90499 -1.20421 -11.246 -0.461478 -6.26881 -19.5044 3.4714 3.53738 23.8895 -1.79984 8.98883 9.18487 106.006 20.5322 -22.069 27.1144 -23.9135 78.1002 -8.12457 9.45048 33.4686 -24.8581 3.80374 2.28104 175.592 -13.2586 146.93 0.000374277 4.04344e-005 10.4461 0.000266788 -3.1972e-005 11.9457 0.00017118 -0.00135304 -0.000149808 122.796 85.1965 -121.724 -0.000450632 -0.000479049 1.22489 0.000841958 -0.000829713 -3.3402 -0.000554369 -0.000629708 -0.140229 20.143 89.9997 -19.0164 -1.05606e-005 -0.000300112 7.68397e-006 0.000598954 -0.000872825 -7.77537 -0.000514409 -0.000239757 -0.129871 79.0616 87.296 -82.7239 -0.000130025 -0.000906888 1.39108 0.000924833 -0.00084436 -7.0103 -0.000627525 -0.000682193 -0.000475126 64.1648 83.4702 -73.9679 0.000778235 -0.00153941 1.15513 -0.000278343 -0.000346626 2.38022 -2.83829e-005 -2.4307e-005 -0.00445028 -65.0004 -21.3321 -18.7176 -37.6974 -7.95994 104.859 4.64355 4.55493 22.7673 43.962 7.35105 -16.1354 160.708 -1.09404 148.931 -0.000109161 0.000100842 17.6245 0.000118303 7.43658e-005 11.7105 -0.000701904 -0.000457763 -180 -41.9976 -86.398 -31.1094 -0.00019979 -0.000286425 7.02018 0.00703287 0.000582965 3.64258 -9.54627e-005 -0.00010674 177.902 1.20973 -87.0377 13.3417 -8.65325e-006 8.05379e-005 0.712155 4.53609e-005 0.000208268 -0.0918829 -0.000217325 0.000731929 177.902 -35.0273 -86.5049 -30.643 -2.9144e-005 -0.000259054 2.03112 8.44046e-005 0.000615695 3.82184 -0.000136767 1.52484e-005 177.888 -49.5356 -81.2212 -56.5218 7.22529e-005 0.000380874 5.35408 3.72837e-005 0.000222725 3.6843 -0.00193387 0.00210418 177.815 
0 0 0 -90 -7.01671e-015 -180 -178.419 -23.7338 151.898 -141.697 -15.2362 -12.6157 0.0726407 -0.0365603 -114.596 -7.88046 -24.275 20.7622 -0.575355 0.0824819 59.9755 4.76601e-005 -1.48908e-006 -86.4976 142.747 9.95109 -36.6566 -0.0427136 0.00564787 -95.998 5.21744 17.1131 25.8317 0.593243 -0.0367161 65.144 2.62883e-005 -4.96898e-005 -86.4976 2.26655e-005 2.04352e-005 132.038 8.50932 -3.50624 -22.7086 0.701802 -1.03403 -11.7211 -0.457824 -5.58391 -19.9774 3.59305 4.24155 24.724 -1.72742 9.16428 9.75345 105.121 20.2375 -23.2818 28.4814 -20.051 78.6157 -8.2614 8.93379 33.3868 -25.5569 4.42141 2.35506 175.592 -13.2587 146.93 0.00037356 3.83762e-005 10.4461 0.000266114 -0.000103909 11.9457 0.000171175 -0.00135895 -0.000149808 122.796 85.1965 -121.724 -0.000449545 -0.00027899 1.22489 0.000841977 -0.000837088 -3.3402 -0.000555757 -0.000629494 -0.140702 13.9907 89.9996 -12.8641 -1.05606e-005 -0.000302526 7.68397e-006 0.000598984 -0.000946916 -7.77537 -0.000515742 -0.000239333 -0.130383 79.0612 87.296 -82.7235 -0.00013003 -0.000934983 1.39108 0.000924811 -0.000857251 -7.0103 -0.000627526 -0.000736244 -0.000475126 64.1641 83.4702 -73.9673 0.000776509 -0.00142235 1.15513 -0.000278344 -0.000382255 2.38022 -2.83969e-005 -3.8996e-005 -0.00445028 -66.4319 -21.4964 -18.9671 -37.7913 -8.2602 104.57 4.23484 4.26514 22.159 42.9018 5.83907 -14.1041 160.729 -1.07942 148.939 -0.000109154 0.000111633 17.5936 0.00011625 5.53802e-005 11.6976 -0.000701904 -0.000457763 -180 -42.2613 -86.3933 -31.3653 -0.000200757 -0.00028695 7.03906 0.00724694 0.000599641 3.68153 -9.54506e-005 -0.00010674 177.909 1.23381 -87.0461 13.3808 -9.28927e-006 8.3871e-005 0.75252 4.53118e-005 0.000210005 -0.0510922 -0.000217408 0.000731932 177.908 -34.8606 -86.5138 -30.4568 -3.65771e-005 -0.000258776 2.05789 8.27453e-005 0.0006124 3.84849 -0.000136768 1.52484e-005 177.894 -49.4877 -81.2367 -56.4037 6.89343e-005 0.000381673 5.42908 3.59198e-005 0.000213662 3.76787 -0.00191886 0.00210419 177.822 
0 0 0 -90 -7.01671e-015 -180 -178.998 -27.1243 154.322 -141.031 -11.8076 -13.5486 0.0716402 -0.0340243 -113.335 -8.82033 -24.2281 20.8836 -0.574256 0.0897395 59.2529 4.53607e-005 -1.67254e-006 -86.4976 142.714 10.5981 -31.8584 -0.0466642 0.00710929 -96.7571 4.1513 16.6296 26.076 0.594267 -0.0103891 67.689 2.58344e-005 -0.000117256 -86.4976 1.9355e-005 2.9956e-005 130.874 5.30941 -3.11442 -25.0245 -0.890453 -0.751995 -11.7462 -0.377736 -4.37845 -20.2114 3.71415 4.68021 25.3408 -1.54462 9.51911 10.429 104.219 20.0902 -23.9086 29.9319 -16.9386 79.0086 -7.4711 7.52029 33.21 -26.4269 6.20189 2.98005 175.592 -13.2585 146.93 0.000372663 3.54746e-005 10.4461 0.000266741 3.61494e-005 11.9457 0.000171177 -0.00136948 -0.000149808 122.796 85.1965 -121.724 -0.000449556 -0.000281381 1.22489 0.000842004 -0.000851849 -3.3402 -0.000552771 -0.000629923 -0.141179 35.1249 89.9998 -33.9983 -1.05606e-005 -0.000302526 7.68397e-006 0.000600495 -0.000799612 -7.77537 -0.000514943 -0.000238482 -0.130894 79.0604 87.296 -82.7227 -0.000130042 -0.000991776 1.39108 0.000924845 -0.000881648 -7.0103 -0.000627525 -0.000844157 -0.000475127 64.1654 83.4702 -73.9686 0.000776506 -0.00142823 1.15513 -0.000278354 -0.000454054 2.38022 -2.83865e-005 -7.13043e-005 -0.00445028 -68.1927 -21.7027 -19.1883 -37.981 -7.97838 104.104 3.62295 4.476 21.8264 41.8241 3.69939 -11.7995 160.751 -1.06482 148.948 -0.000115005 0.000119395 17.5627 0.000112142 6.79122e-005 11.6827 -0.000701904 -0.000473022 -180 -42.524 -86.3885 -31.6204 -0.000202606 -0.000287673 7.05793 0.00746094 0.000618082 3.72048 -9.54384e-005 -0.000106741 177.915 1.25802 -87.0544 13.42 -1.14334e-005 8.28884e-005 0.792882 4.31224e-005 0.000208317 -0.0103042 -0.000217491 0.000731935 177.915 -34.6471 -86.5248 -30.2248 -4.27468e-005 -0.000257722 2.08465 8.1168e-005 0.000610318 3.87514 -0.00013677 1.52485e-005 177.901 -49.4409 -81.2541 -56.2803 6.48704e-005 0.000378346 5.50409 3.36111e-005 0.000201743 3.85145 -0.00191911 0.0021042 177.828 
